<?xml version="1.0" standalone="no"?>
<!DOCTYPE svg PUBLIC "-//W3C//DTD SVG 20010904//EN"
 "http://www.w3.org/TR/2001/REC-SVG-20010904/DTD/svg10.dtd">
<svg version="1.0" xmlns="http://www.w3.org/2000/svg"
 width="1920.000000pt" height="1920.000000pt" viewBox="0 0 1920.000000 1920.000000"
 preserveAspectRatio="xMidYMid meet">

<g transform="translate(0.000000,1920.000000) scale(0.100000,-0.100000)"
fill="#000000" stroke="none">
<path d="M9145 15662 c-164 -49 -308 -165 -378 -302 -123 -244 -67 -530 123
-634 60 -33 152 -44 215 -27 105 28 183 115 193 212 4 46 2 51 -36 89 -35 36
-45 40 -89 40 -58 0 -90 -19 -109 -67 -12 -29 -19 -34 -42 -31 -21 2 -33 14
-50 48 -20 38 -23 56 -19 120 5 96 36 159 111 228 78 71 145 95 257 90 120 -4
214 -50 320 -158 116 -116 169 -238 172 -395 3 -112 -19 -185 -102 -345 -132
-256 -149 -293 -178 -385 -25 -84 -27 -102 -27 -275 0 -172 2 -191 27 -275 38
-124 123 -293 203 -400 38 -49 140 -160 228 -245 352 -340 513 -507 569 -587
245 -353 360 -661 387 -1037 18 -257 -18 -543 -102 -806 -118 -369 -277 -636
-532 -892 -251 -252 -520 -371 -841 -371 -286 0 -468 113 -491 305 -9 74 10
157 60 263 56 118 130 215 323 419 260 276 351 377 417 464 129 170 206 323
253 499 23 86 26 117 26 258 0 146 -2 168 -27 250 -41 136 -89 218 -181 310
-138 139 -293 203 -515 212 -327 14 -688 -127 -995 -387 -348 -295 -591 -694
-674 -1107 -28 -138 -43 -338 -35 -462 4 -69 3 -103 -3 -96 -30 30 -145 183
-203 270 -287 429 -496 945 -581 1435 -29 163 -31 402 -6 504 36 144 116 259
212 306 41 20 62 20 1311 20 1255 0 1269 0 1302 20 34 21 62 71 62 111 0 40
-32 90 -71 110 -38 19 -64 19 -1336 17 l-1298 -3 -80 -38 c-111 -53 -224 -167
-283 -287 -126 -256 -131 -579 -17 -1046 150 -611 439 -1185 811 -1615 93
-107 273 -284 336 -329 50 -37 114 -41 162 -10 67 41 70 92 16 244 -57 160
-73 268 -74 481 -1 221 13 314 74 498 81 242 214 457 405 655 141 147 286 256
440 332 203 99 316 130 483 130 166 0 288 -47 385 -149 97 -101 137 -212 137
-382 0 -217 -87 -426 -277 -662 -71 -89 -104 -124 -375 -405 -307 -318 -438
-551 -438 -776 1 -280 180 -492 487 -577 110 -30 360 -38 493 -15 189 33 394
123 580 254 113 79 332 293 419 410 259 344 432 790 486 1252 66 559 -95 1125
-456 1607 -84 111 -299 331 -503 514 -275 246 -399 431 -447 664 -21 101 -23
163 -9 249 21 130 55 210 213 507 75 140 97 227 97 379 0 245 -89 444 -278
621 -90 84 -162 130 -260 167 -91 34 -285 41 -377 14z"/>
<path d="M10815 14730 c-254 -39 -491 -213 -608 -445 -78 -157 -107 -373 -73
-540 32 -158 125 -307 248 -400 83 -63 222 -130 270 -130 88 0 138 124 82 204
-9 12 -49 38 -90 56 -177 81 -274 235 -274 434 0 167 56 298 179 421 90 89
178 137 281 153 126 19 235 -25 281 -115 40 -79 1 -170 -80 -184 -61 -10 -93
-26 -112 -58 -39 -64 -15 -156 46 -182 44 -18 67 -18 140 1 283 73 358 454
132 662 -23 21 -58 48 -77 60 -85 52 -238 80 -345 63z"/>
<path d="M8472 14540 c-102 -27 -166 -64 -243 -140 -70 -70 -104 -131 -120
-214 -24 -133 55 -291 176 -351 53 -27 175 -27 223 -2 66 36 89 113 55 184
-23 50 -70 70 -123 54 -71 -21 -105 23 -75 96 21 51 50 80 110 111 43 23 62
27 140 27 105 0 163 -23 228 -88 90 -90 109 -189 78 -407 -25 -170 -26 -231
-6 -323 23 -108 89 -222 147 -253 63 -33 147 -3 174 63 20 47 12 87 -27 135
-62 78 -71 152 -43 350 21 153 15 322 -14 403 -28 77 -102 184 -161 236 -138
119 -340 166 -519 119z"/>
<path d="M10891 12963 c-19 -10 -44 -30 -54 -45 -26 -35 -27 -104 -2 -141 38
-58 22 -57 655 -57 485 0 586 -2 615 -15 37 -15 145 -111 145 -128 0 -5 -26
-37 -57 -71 -105 -113 -177 -246 -219 -402 -27 -101 -27 -355 0 -438 37 -110
104 -173 214 -197 151 -35 276 66 349 281 61 182 83 476 49 655 -9 44 -16 83
-16 86 0 10 153 68 227 86 43 10 114 17 193 17 186 1 260 -24 368 -128 74 -70
119 -142 157 -246 22 -61 28 -98 32 -196 4 -73 1 -148 -6 -189 -57 -327 -356
-631 -686 -700 -90 -18 -133 -19 -292 -4 -308 30 -434 -53 -678 -446 -114
-184 -234 -360 -302 -445 -90 -112 -248 -275 -346 -358 -86 -72 -107 -103
-107 -154 0 -39 30 -92 60 -108 12 -6 83 -20 157 -31 388 -54 735 -145 938
-244 101 -49 165 -98 165 -125 0 -10 -21 -33 -47 -53 -262 -190 -989 -339
-1998 -408 -249 -17 -1144 -23 -1431 -10 -845 39 -1505 135 -1946 282 -171 57
-338 153 -338 194 0 24 83 86 175 130 82 39 329 125 361 125 24 0 74 52 84 89
19 73 -22 144 -92 160 -86 20 -467 -119 -612 -223 -206 -147 -235 -339 -74
-499 266 -266 1162 -459 2398 -517 275 -13 1001 -13 1280 0 960 44 1772 181
2166 365 254 118 367 261 334 421 -39 185 -296 342 -753 459 -140 36 -368 85
-394 85 -3 0 27 34 66 75 158 166 412 519 487 676 71 147 162 256 250 296 55
25 56 25 257 18 271 -10 365 8 551 103 345 177 587 520 627 893 26 237 -52
494 -205 684 -71 88 -119 130 -204 182 -211 127 -562 130 -846 8 l-80 -34 -14
22 c-42 63 -152 156 -228 193 l-79 39 -610 3 c-567 2 -612 1 -644 -15z m1453
-893 c-3 -140 -20 -219 -63 -295 -32 -56 -61 -66 -72 -25 -13 45 -9 224 6 286
17 72 51 152 91 214 l29 45 6 -50 c3 -27 5 -106 3 -175z"/>
<path d="M9824 7740 c-145 -20 -274 -85 -381 -190 -152 -149 -219 -310 -265
-635 -11 -82 -21 -151 -22 -152 -1 -1 -55 -9 -121 -18 -195 -26 -175 -14 -175
-106 l0 -79 152 0 151 0 -6 -667 c-4 -366 -9 -668 -11 -671 -5 -4 -93 -22
-213 -42 l-73 -12 0 -64 0 -64 465 0 465 0 0 63 0 64 -156 26 c-86 14 -159 29
-163 32 -3 4 -7 306 -9 671 l-3 664 396 0 395 0 0 -670 0 -670 -22 -5 c-35 -7
-251 -45 -260 -45 -4 0 -8 -29 -8 -65 l0 -65 465 0 465 0 0 63 0 64 -102 17
c-57 9 -131 21 -165 27 l-63 11 0 669 0 669 245 0 245 0 0 95 0 95 -247 2
-248 3 1 155 c2 292 59 489 177 617 22 24 45 43 51 43 6 0 52 -31 103 -69 50
-38 116 -78 147 -90 130 -48 268 -13 315 82 23 47 23 49 6 92 -55 146 -307
203 -555 126 -191 -60 -361 -227 -441 -435 -37 -95 -73 -258 -90 -408 l-12
-107 -51 -6 c-28 -3 -208 -5 -401 -3 l-350 3 2 151 c3 282 51 461 162 601 55
70 71 73 129 25 78 -66 169 -119 223 -132 114 -28 233 9 276 85 28 50 28 70 0
120 -29 52 -96 101 -160 119 -68 19 -187 26 -263 16z"/>
<path d="M5625 7491 c-515 -95 -883 -481 -970 -1016 -18 -106 -20 -331 -4
-441 57 -410 287 -747 627 -918 178 -90 358 -129 592 -128 237 0 407 33 611
118 l106 45 6 127 c4 70 7 189 7 265 l0 137 -110 0 c-60 0 -110 -3 -110 -7 0
-5 -16 -98 -35 -208 -19 -110 -35 -201 -35 -202 0 -9 -173 -65 -239 -77 -119
-23 -298 -21 -397 4 -391 98 -618 444 -640 975 -22 524 164 920 511 1085 107
51 188 70 320 77 126 6 231 -14 345 -65 l65 -29 35 -209 36 -209 112 -3 112
-3 -6 258 c-4 165 -11 263 -18 272 -26 34 -216 106 -371 141 -133 31 -414 36
-550 11z"/>
<path d="M7580 6785 c-321 -66 -548 -287 -637 -621 -23 -88 -26 -118 -27 -269
0 -142 4 -185 22 -257 81 -325 280 -536 587 -619 112 -31 316 -31 429 0 162
43 325 147 421 269 57 70 138 235 159 322 56 224 40 483 -41 680 -47 113 -94
182 -182 271 -90 89 -163 138 -271 182 -138 55 -318 71 -460 42z m241 -155
c134 -25 251 -119 314 -252 74 -157 107 -390 87 -615 -25 -276 -98 -441 -236
-534 -76 -51 -142 -70 -246 -70 -279 -1 -438 184 -479 555 -29 253 4 509 85
674 91 185 275 279 475 242z"/>
<path d="M11885 6784 c-384 -86 -638 -410 -662 -845 -25 -473 189 -817 574
-921 104 -28 324 -30 428 -5 109 27 240 96 317 167 64 58 168 197 168 225 0
12 -61 65 -76 65 -4 0 -39 -31 -78 -68 -132 -125 -248 -172 -425 -172 -122 0
-192 15 -284 61 -123 63 -231 207 -271 364 -16 61 -39 236 -32 242 2 3 261 4
575 3 l571 -1 11 28 c21 52 23 251 5 344 -50 251 -225 442 -461 505 -88 23
-274 27 -360 8z m288 -174 c80 -30 167 -112 209 -198 30 -61 33 -75 33 -159 0
-103 -13 -131 -76 -168 -32 -19 -55 -20 -413 -23 l-378 -3 6 48 c55 388 329
611 619 503z"/>
<path d="M13752 6790 c-308 -56 -554 -286 -647 -605 -94 -327 -30 -711 158
-933 93 -111 236 -197 392 -238 103 -26 322 -24 428 4 172 47 329 160 427 310
l50 76 -20 21 c-12 12 -31 28 -44 34 -22 12 -28 9 -89 -50 -128 -125 -233
-171 -407 -177 -136 -5 -222 12 -314 61 -168 89 -287 304 -290 525 l-1 82 567
0 567 0 13 22 c9 16 13 71 13 188 -1 152 -3 171 -28 245 -35 105 -74 170 -146
247 -116 124 -266 187 -461 193 -63 2 -139 0 -168 -5z m256 -178 c161 -62 258
-209 251 -381 -4 -75 -6 -82 -37 -114 -18 -19 -50 -39 -71 -46 -26 -7 -158
-11 -399 -11 l-362 0 7 48 c10 77 52 212 86 277 63 119 191 220 307 245 62 13
157 5 218 -18z"/>
<path d="M7949 4366 c-208 -60 -323 -248 -298 -486 18 -163 116 -289 267 -341
95 -33 255 -26 353 15 41 17 49 39 49 137 l0 59 -39 0 -38 0 -14 -72 c-14 -72
-14 -73 -54 -84 -53 -16 -148 -17 -199 -2 -60 18 -138 99 -167 173 -20 51 -23
78 -23 180 0 103 3 129 23 180 34 85 109 158 186 181 65 18 135 15 183 -10 25
-13 30 -24 41 -85 l13 -71 39 0 39 0 -6 88 c-4 48 -12 92 -18 98 -41 41 -249
66 -337 40z"/>
<path d="M8977 4328 c-8 -24 -67 -196 -132 -383 -64 -187 -118 -341 -120 -343
-2 -2 -25 -6 -52 -10 -43 -6 -48 -10 -48 -32 l0 -25 140 0 c148 0 143 -2 136
44 0 5 -24 11 -51 13 -28 3 -53 8 -56 11 -3 3 8 49 26 102 l32 96 146 -3 145
-3 33 -97 33 -98 -22 -5 c-12 -2 -38 -6 -57 -7 -30 -3 -35 -7 -38 -30 l-3 -28
166 0 166 0 -3 28 c-3 24 -8 27 -44 30 l-42 3 -67 197 c-37 108 -97 284 -132
390 l-65 192 -38 0 c-36 0 -39 -2 -53 -42z m83 -283 c29 -88 55 -166 58 -172
3 -10 -24 -13 -117 -13 -67 0 -121 3 -121 8 -1 20 116 350 121 344 4 -4 30
-79 59 -167z"/>
<path d="M9730 4336 c0 -21 6 -24 55 -31 l55 -6 -2 -352 -3 -352 -50 -5 c-46
-5 -50 -7 -53 -33 l-3 -27 173 2 c160 3 173 4 176 22 5 23 -14 36 -55 36 -64
0 -63 -4 -63 176 l0 165 97 -3 c78 -2 98 -6 100 -18 1 -8 5 -36 8 -62 6 -45 8
-48 36 -48 l29 0 0 150 0 150 -29 0 c-28 0 -30 -3 -36 -47 -4 -27 -8 -52 -9
-57 -2 -11 -140 -19 -173 -11 -23 5 -23 8 -23 160 l0 156 148 -3 147 -3 14
-77 13 -78 34 0 34 0 0 88 c0 48 -3 97 -6 110 l-6 22 -304 0 -304 0 0 -24z"/>
<path d="M10680 4336 c0 -21 6 -24 54 -30 44 -6 55 -11 60 -29 10 -37 7 -634
-4 -661 -8 -21 -16 -25 -57 -28 -44 -3 -48 -5 -51 -30 l-3 -28 320 0 321 0 0
33 c0 19 3 68 6 110 l7 77 -35 0 c-40 0 -43 -5 -53 -76 -13 -83 -4 -79 -179
-76 l-156 3 0 164 0 165 94 0 94 0 7 -60 c7 -58 8 -60 36 -60 l29 0 0 145 0
145 -28 0 c-27 0 -29 -3 -38 -57 l-9 -58 -90 0 -90 0 0 155 0 155 146 3 145 3
15 -78 c14 -77 14 -78 47 -81 l32 -3 0 110 0 111 -310 0 -310 0 0 -24z"/>
</g>
</svg>
